<svg xmlns="http://www.w3.org/2000/svg" viewBox="0 0 496 512" fill="currentColor">
  <path d="M248 8C111 8 0 119 0 256c0 109.8 71.5 202.8 170.7 235.7 12.5 2.3 17.1-5.4 17.1-12v-42.3c-69.5 15.1-84.2-33.5-84.2-33.5-11.4-28.9-27.8-36.6-27.8-36.6-22.7-15.5 1.7-15.2 1.7-15.2 25.1 1.8 38.3 25.8 38.3 25.8 22.3 38.2 58.5 27.2 72.8 20.8 2.3-16.2 8.7-27.2 15.8-33.5-55.5-6.3-113.9-27.8-113.9-123.7 0-27.3 9.8-49.6 25.8-67.1-2.6-6.3-11.2-31.7 2.4-66.1 0 0 21-6.7 68.8 25.6A239.4 239.4 0 0 1 248 116a239.4 239.4 0 0 1 62.6 8.5c47.8-32.3 68.8-25.6 68.8-25.6 13.6 34.4 5 59.8 2.4 66.1 16 17.5 25.8 39.8 25.8 67.1 0 96.2-58.5 117.3-114.2 123.5 9 7.8 17 23.2 17 46.8v69.3c0 6.7 4.5 14.4 17.2 12C424.5 458.8 496 365.8 496 256 496 119 385 8 248 8z"/>
</svg>